# xmcd
#
# Track frame offsets:
#	150
#	14763
#	37326
#	59977
#	82501
#	98872
#	115370
#	132800
#	152161
#	165609
#	184859
#	205510
#	220314
#	246190
#	267629
#	287798
#	313316
#	332079
#
# Disc length: 4692 seconds
#
# Revision: 0
# Processed by: cddbd v1.5PL3 Copyright (c) Steve Scherf et al.
# Submitted via: dBpowerAMP V4.0
#
DISCID=17125212
DTITLE=Varios - 16 Mega exitos de la saborsita
DYEAR=2000
DGENRE=Cumbia
TTITLE0=Intro
TTITLE1=Rumba Quimbumba
TTITLE2=Vida Futura
TTITLE3=Rumba cha cha cha
TTITLE4=Guaracha sabrosona
TTITLE5=El paso del gigante
TTITLE6=2a de la guaracha sabrosona
TTITLE7=Romeo y julieta
TTITLE8=Amor de tres
TTITLE9=Obsesion
TTITLE10=Cumbia con acordeon
TTITLE11=Princesa talibana
TTITLE12=Cumbia electronica
TTITLE13=Pa' la paloma
TTITLE14=Tu cariñito
TTITLE15=Amor y control
TTITLE16=Nadie que te quiera como yo
TTITLE17=Tu y yo somos uno solo
EXTD=
EXTT0=
EXTT1=
EXTT2=
EXTT3=
EXTT4=
EXTT5=
EXTT6=
EXTT7=
EXTT8=
EXTT9=
EXTT10=
EXTT11=
EXTT12=
EXTT13=
EXTT14=
EXTT15=
EXTT16=
EXTT17=
PLAYORDER=
